<svg id="Слой_1" data-name="Слой 1" xmlns="http://www.w3.org/2000/svg" viewBox="0 0 77 77"><defs><style>.cls-1{fill:none;stroke:#000;stroke-miterlimit:10;stroke-width:3px;}.cls-1,.cls-2{opacity:0.8;}</style></defs><title>pencil</title><circle class="cls-1" cx="38.5" cy="38.5" r="37"/><g class="cls-2"><path d="M68.41,34.42l-2.87-2.87a5,5,0,0,0-7.3,0l-3.39,3.39a1.13,1.13,0,0,1-.11.38L31.93,58.14c0,.26-.26.52-.26.78l-1.56,9.9c-.26.26,0,.78.26,1,.26,0,.78.26,1,.26l9.9-1.3a1,1,0,0,0,.78-.26L65,45.63a4,4,0,0,1,.19-.71l3.2-3.2a5,5,0,0,0,0-7.3ZM43.53,63.22,37,56.7,55.78,37.94l6.51,6.51ZM40.79,66,33,67.26l1.3-7.82.91-.91L41.7,65ZM66.85,39.9,64.24,42.5,57.73,36l2.61-2.61a2.52,2.52,0,0,1,3.65,0l2.87,2.87a2.52,2.52,0,0,1,0,3.65Z" transform="translate(-12 -11.5)"/></g></svg>